<svg width="20" height="19" viewBox="0 0 20 19" fill="none" xmlns="http://www.w3.org/2000/svg">
<path d="M12.5619 11.5616C11.9223 12.64 10.6801 13.2075 9.44623 12.985C8.21238 12.7624 7.24667 11.7967 7.02414 10.5629C6.80161 9.32905 7.36911 8.08682 8.44747 7.44727" stroke="#999999" stroke-width="1.5" stroke-linecap="round" stroke-linejoin="round"/>
<path d="M16.0003 14.9995C14.2755 16.3077 12.1685 17.0128 10.0037 17.0062C6.41664 17.0701 3.10228 15.0987 1.44617 11.9161C0.851276 10.7103 0.851276 9.29634 1.44617 8.09052C2.27442 6.44114 3.59472 5.08988 5.22446 4.22363" stroke="#999999" stroke-width="1.5" stroke-linecap="round" stroke-linejoin="round"/>
<path d="M18.4312 12.1379C18.4713 12.0619 18.5235 11.9937 18.5615 11.9162C19.1564 10.7104 19.1564 9.29646 18.5615 8.09064C16.9054 4.90806 13.591 2.93665 10.0039 3.00053C9.77899 3.00053 9.56039 3.03054 9.33838 3.04517" stroke="#999999" stroke-width="1.5" stroke-linecap="round" stroke-linejoin="round"/>
<path d="M19.0076 18.0071L2.00049 1" stroke="#999999" stroke-width="1.5" stroke-linecap="round" stroke-linejoin="round"/>
</svg>
