<svg width="20" height="16" viewBox="0 0 20 16" fill="none" xmlns="http://www.w3.org/2000/svg">
<path d="M12.1283 5.87975C13.2999 7.05075 13.2999 8.95175 12.1283 10.1247C10.9566 11.2957 9.05459 11.2957 7.88094 10.1247C6.70928 8.95375 6.70928 7.05275 7.88094 5.87975C9.05459 4.70675 10.9556 4.70675 12.1283 5.87975" stroke="white" stroke-width="1.5" stroke-linecap="round" stroke-linejoin="round"/>
<path fill-rule="evenodd" clip-rule="evenodd" d="M1 8C1 7.341 1.15208 6.689 1.44625 6.088V6.088C2.96209 2.991 6.31195 1 10.005 1C13.6981 1 17.0479 2.991 18.5638 6.088V6.088C18.8579 6.689 19.01 7.341 19.01 8C19.01 8.659 18.8579 9.311 18.5638 9.912V9.912C17.0479 13.009 13.6981 15 10.005 15C6.31195 15 2.96209 13.009 1.44625 9.912V9.912C1.15208 9.311 1 8.659 1 8Z" stroke="white" stroke-width="1.5" stroke-linecap="round" stroke-linejoin="round"/>
</svg>
