<svg xmlns="http://www.w3.org/2000/svg" xmlns:xlink="http://www.w3.org/1999/xlink" width="47" height="32" viewBox="0 0 47 32">
  <defs>
    <linearGradient id="linear-gradient" x1="0.5" x2="0.5" y2="1" gradientUnits="objectBoundingBox">
      <stop offset="0" stop-color="#c3bb71"/>
      <stop offset="1" stop-color="#1a8c7c"/>
    </linearGradient>
  </defs>
  <g id="icon-seguro-vida" transform="translate(-0.425 0.489)">
    <g id="Retângulo_3405" data-name="Retângulo 3405" transform="translate(0.425 -0.489)" fill="#fff" stroke="#707070" stroke-width="1" opacity="0">
      <rect width="47" height="32" stroke="none"/>
      <rect x="0.5" y="0.5" width="46" height="31" fill="none"/>
    </g>
    <g id="icon-seguro-vida-2" data-name="icon-seguro-vida" transform="translate(8.191 3.274)">
      <path id="Caminho_4230" data-name="Caminho 4230" d="M50.137,78.235s-7.593-4.519-11.556-10.259c-2.3-3.333-2.63-6.222-1.963-8.481A7.174,7.174,0,0,1,46.359,54.9a14.808,14.808,0,0,1,3.778,1.963A14.808,14.808,0,0,1,53.915,54.9a7.174,7.174,0,0,1,9.741,4.593c.667,2.222.333,5.111-1.963,8.481C57.73,73.717,50.137,78.235,50.137,78.235Z" transform="translate(-32.952 -53.865)" stroke="#000" stroke-width="1.4" fill="url(#linear-gradient)"/>
      <path id="Caminho_4231" data-name="Caminho 4231" d="M33.481,61.126H30.593a9.057,9.057,0,0,0,.63-6.407A7.642,7.642,0,0,0,23.963,49.2a8.76,8.76,0,0,0-3.148.593,16.738,16.738,0,0,0-3.593,1.815,17.762,17.762,0,0,0-3.593-1.815,8.76,8.76,0,0,0-3.148-.593,7.642,7.642,0,0,0-7.259,5.519,9.084,9.084,0,0,0,.815,6.963H.518a.519.519,0,0,0,0,1.037H4.63l.556.889c3.37,4.852,10.667,10.111,12,10.444v.037a.115.115,0,0,0,.074-.037h.074v-.037c1.148-.556,8.148-5.074,11.852-10.444.333-.481.63-1,.889-1.444h3.407A.506.506,0,0,0,34,61.607.5.5,0,0,0,33.481,61.126Zm-29.3-6.111a6.625,6.625,0,0,1,6.259-4.778,8.523,8.523,0,0,1,2.778.519,14.468,14.468,0,0,1,3.63,1.889.556.556,0,0,0,.667,0,14.468,14.468,0,0,1,3.63-1.889,8.523,8.523,0,0,1,2.778-.519,6.625,6.625,0,0,1,6.259,4.778,8.443,8.443,0,0,1-.778,6.111H26.259l-1.333-2.259a.514.514,0,0,0-.444-.259.485.485,0,0,0-.444.222l-1.111,1.63-1.778-5.778a.548.548,0,0,0-1.037,0l-3,10.407-3.259-8.333a.527.527,0,0,0-.481-.333.5.5,0,0,0-.481.3l-2.556,4.963H5.259A8.532,8.532,0,0,1,4.185,55.015Zm24.111,8c-3.444,5-9.741,9.074-11.111,9.926-1.37-.852-7.667-4.963-11.111-9.926-.074-.111-.111-.185-.185-.3h4.778a.578.578,0,0,0,.481-.3L13.3,58.2,16.7,66.9a.478.478,0,0,0,.481.333h.037a.511.511,0,0,0,.481-.37l2.963-10.185,1.593,5.148a.547.547,0,0,0,.963.148l1.259-1.815,1.074,1.815a.565.565,0,0,0,.444.259h2.852C28.667,62.459,28.481,62.756,28.3,63.015Z" transform="translate(0 -49.2)"/>
    </g>
  </g>
</svg>
